<svg width="220" height="195" viewBox="0 0 220 195" fill="none" xmlns="http://www.w3.org/2000/svg">
<path d="M130.5 162L110 134V173L130.5 162Z" fill="#2679BD"/>
<path d="M130.5 162L110 173L205 193.5L130.5 162Z" fill="#0652B2"/>
<path d="M130.5 162L110 134L155.5 156L130.5 162Z" fill="#91D5F1"/>
<path d="M151.5 171L155.5 156L130.5 162L151.5 171Z" fill="#B7E1F1"/>
<path d="M155.5 156L151.5 171L205 193.5L155.5 156Z" fill="#2679BD"/>
<path d="M197 176.5L155.5 156L205 193.5L197 176.5Z" fill="#4E8BC9"/>
<path d="M110 153V173L15 193.5L110 153Z" fill="#0652B2"/>
<path d="M110 153.5V134L68.5 171L110 153.5Z" fill="#91D5F1"/>
<path d="M64.5 156L68.5 171L15 193.5L64.5 156Z" fill="#2679BD"/>
<path d="M23 176.5L64.5 156L15 193.5L23 176.5Z" fill="#4E8BC9"/>
<path d="M110 134L64.5 156L68.5 171L110 134Z" fill="#B7E1F1"/>
<path d="M134.499 80.2689L120.5 112.022L154.275 92.5225L134.499 80.2689Z" fill="#2679BD"/>
<path d="M134.499 80.2689L154.275 92.5225L124.528 4.71771e-05L134.499 80.2689Z" fill="#0652B2"/>
<path d="M134.499 80.2689L120.5 112.022L116.803 61.6183L134.499 80.2689Z" fill="#91D5F1"/>
<path d="M131.793 57.5825L116.803 61.6184L134.499 80.269L131.793 57.5825Z" fill="#B7E1F1"/>
<path d="M116.803 61.6184L131.793 57.5825L124.529 0.000159025L116.803 61.6184Z" fill="#2679BD"/>
<path d="M113.806 15.4284L116.803 61.6184L124.529 0.00014925L113.806 15.4284Z" fill="#4E8BC9"/>
<path d="M136.954 102.522L154.275 92.5225L219.529 164.545L136.954 102.522Z" fill="#0652B2"/>
<path d="M137.387 102.272L120.5 112.022L173.293 129.463L137.387 102.272Z" fill="#91D5F1"/>
<path d="M162.303 140.427L173.293 129.463L219.529 164.545L162.303 140.427Z" fill="#2679BD"/>
<path d="M200.806 166.117L162.303 140.427L219.529 164.545L200.806 166.117Z" fill="#4E8BC9"/>
<path d="M120.5 112.023L162.303 140.427L173.293 129.463L120.5 112.023Z" fill="#B7E1F1"/>
<path d="M64.5299 115.776L99.0286 112.022L65.2536 92.5225L64.5299 115.776Z" fill="#2679BD"/>
<path d="M64.5299 115.776L65.2536 92.5225L0.000101835 164.545L64.5299 115.776Z" fill="#0652B2"/>
<path d="M64.5299 115.776L99.0286 112.022L57.226 140.427L64.5299 115.776Z" fill="#91D5F1"/>
<path d="M46.2356 129.462L57.226 140.427L64.5298 115.776L46.2356 129.462Z" fill="#B7E1F1"/>
<path d="M57.226 140.427L46.2356 129.462L-3.09944e-06 164.545L57.226 140.427Z" fill="#2679BD"/>
<path d="M18.7224 166.117L57.226 140.427L-2.86102e-06 164.545L18.7224 166.117Z" fill="#4E8BC9"/>
<path d="M82.5741 102.522L65.2536 92.5225L95.0001 4.66406e-05L82.5741 102.522Z" fill="#0652B2"/>
<path d="M82.1411 102.272L99.0286 112.022L87.7356 57.5824L82.1411 102.272Z" fill="#91D5F1"/>
<path d="M102.726 61.6182L87.7356 57.5823L95 -8.51154e-05L102.726 61.6182Z" fill="#2679BD"/>
<path d="M105.722 15.4281L102.726 61.6182L95 -9.48906e-05L105.722 15.4281Z" fill="#4E8BC9"/>
<path d="M99.0286 112.022L102.726 61.6182L87.7356 57.5823L99.0286 112.022Z" fill="#B7E1F1"/>
</svg>
